<svg xmlns="http://www.w3.org/2000/svg" xmlns:xlink="http://www.w3.org/1999/xlink" width="67" zoomAndPan="magnify" viewBox="0 0 50.25 37.499999" height="50" preserveAspectRatio="xMidYMid meet" version="1.0"><defs><clipPath id="9fab6470d6"><path d="M 0 0.03125 L 49.511719 0.03125 L 49.511719 36.976562 L 0 36.976562 Z M 0 0.03125 " clip-rule="nonzero"/></clipPath></defs><g clip-path="url(#9fab6470d6)"><path fill="#ede3d8" d="M 1.203125 9.34375 L 7.226562 7.277344 L 22.898438 5.273438 L 35.945312 1.40625 L 46.480469 0.0351562 L 49.511719 1.839844 L 49.300781 5.734375 L 46.78125 14.875 L 43.847656 19.710938 L 41.195312 29.191406 L 38.492188 33.054688 L 31.414062 31.042969 L 26.585938 28.144531 L 18.855469 32.589844 L 13.90625 36.972656 L 9.765625 36.375 L 8.140625 29.066406 L 8.980469 18.367188 L 2.941406 16.351562 L 0 13.542969 Z M 1.203125 9.34375 " fill-opacity="1" fill-rule="nonzero"/></g><path fill="#000000" d="M 11.367188 17.144531 C 10.867188 16.933594 10.398438 16.371094 9.777344 16.070312 C 8.933594 15.667969 7.839844 15.355469 6.695312 14.601562 C 5.882812 14.0625 5.046875 13.277344 4.375 12.796875 C 3.832031 12.410156 2.492188 12.191406 2.671875 11.734375 C 2.738281 11.371094 3.019531 11.066406 3.40625 10.980469 C 4.664062 10.703125 6.09375 10.691406 7.222656 10.445312 C 8.339844 10.199219 9.855469 9.484375 10.859375 9.265625 C 12.964844 8.804688 14.972656 8.804688 16.679688 8.445312 C 18.328125 8.101562 19.816406 8.054688 21.367188 7.753906 C 23.375 7.363281 26.914062 6.933594 28.832031 6.503906 C 30.21875 6.191406 31.445312 5.492188 32.875 5.164062 C 34.921875 4.695312 36.808594 4.742188 38.789062 4.492188 C 39.582031 4.394531 41.367188 3.785156 42.246094 3.597656 C 43.125 3.410156 44.261719 3.445312 44.898438 3.273438 C 45.640625 3.070312 46.015625 2.777344 46.800781 2.640625 C 47.320312 2.550781 47.761719 2.800781 47.753906 3.277344 C 47.75 3.542969 47.3125 4.292969 47.164062 4.820312 C 46.945312 5.613281 46.945312 6.464844 46.425781 8.035156 C 46.070312 9.117188 45.171875 10.867188 44.722656 12.191406 C 44.144531 13.894531 43.070312 15.679688 42.480469 17.496094 C 42.132812 18.578125 41.875 19.894531 41.585938 20.851562 C 41.339844 21.664062 40.957031 22.4375 40.742188 23.25 C 40.417969 24.464844 40.332031 24.808594 39.90625 25.804688 C 39.585938 26.550781 39.097656 27.300781 38.851562 27.972656 C 38.632812 28.570312 38.734375 29.5 38.4375 29.835938 C 38.25 30.050781 37.894531 30.050781 37.609375 29.941406 C 37.230469 29.792969 36.640625 29.265625 36.097656 29.039062 C 35.152344 28.640625 33.179688 28.003906 31.988281 27.460938 C 30.9375 26.976562 30 26.113281 28.949219 25.777344 C 28.148438 25.519531 26.574219 25.316406 26.574219 25.316406 C 26.574219 25.316406 25.3125 25.480469 24.148438 26.292969 C 23.363281 26.84375 22.417969 28.039062 21.429688 28.757812 C 20.367188 29.535156 18.914062 30.15625 17.785156 30.9375 C 17.375 31.21875 16.328125 31.917969 15.695312 32.265625 C 15.152344 32.5625 14.445312 32.695312 13.992188 33.015625 C 13.566406 33.320312 13.230469 33.863281 12.976562 34.203125 C 12.664062 34.617188 12.316406 34.628906 12.050781 34.375 C 11.871094 34.203125 11.757812 33.964844 11.753906 33.695312 C 11.738281 32.484375 11.984375 31.625 11.988281 30.738281 C 11.992188 29.953125 11.773438 29.175781 11.773438 28.390625 C 11.777344 27.484375 12.0625 26.332031 12.011719 25.300781 C 11.949219 23.988281 11.496094 21.894531 11.390625 20.535156 C 11.300781 19.410156 11.507812 18.296875 11.367188 17.144531 Z M 6.203125 12.320312 C 6.816406 12.628906 7.640625 13.617188 8.425781 14.019531 C 9.089844 14.359375 10.441406 14.695312 11.1875 14.984375 C 11.773438 15.210938 12.492188 15.578125 12.910156 15.753906 C 12.988281 15.785156 13.058594 15.824219 13.121094 15.871094 C 15.058594 15.257812 17.53125 14.65625 20.332031 13.667969 C 21.507812 13.253906 22.703125 12.539062 24 12.097656 C 25.21875 11.683594 26.792969 11.464844 28.042969 11.003906 C 29.578125 10.441406 31.109375 9.433594 32.621094 8.878906 C 34.175781 8.308594 36.078125 7.894531 37.488281 7.347656 C 39.453125 6.589844 41.25 5.617188 42.691406 5.03125 C 42.214844 5.117188 40.460938 5.363281 39.292969 5.585938 C 38.234375 5.789062 36.878906 5.9375 35.675781 6.136719 C 34.332031 6.359375 32.855469 6.628906 31.226562 6.914062 C 29.527344 7.210938 27.789062 7.847656 26.15625 8.113281 C 23.921875 8.480469 21.621094 8.640625 19.121094 9.148438 C 17.695312 9.4375 15.90625 9.875 14.238281 10.21875 C 12.839844 10.511719 11.558594 10.539062 9.914062 10.894531 C 8.804688 11.136719 7.445312 12.046875 6.203125 12.320312 Z M 37.484375 27.984375 C 37.957031 26.605469 38.308594 25.753906 38.648438 24.613281 C 38.863281 23.886719 38.90625 23.011719 39.121094 22.246094 C 39.332031 21.488281 39.761719 20.488281 39.925781 20.023438 C 40.292969 18.980469 40.511719 18.488281 40.847656 17.496094 C 41.285156 16.207031 41.546875 14.941406 41.933594 14.011719 C 42.425781 12.828125 43.472656 11.484375 43.875 10.46875 C 44.335938 9.304688 44.773438 7.328125 45.042969 6.539062 C 44.261719 7.054688 43.171875 7.488281 42.488281 7.921875 C 41.660156 8.445312 40.632812 9.480469 39.8125 10.011719 C 39.113281 10.464844 38.261719 10.652344 37.566406 11.117188 C 36.675781 11.710938 35.601562 12.417969 34.363281 13.21875 C 33.539062 13.75 32.265625 14.085938 31.363281 14.753906 C 30.617188 15.304688 29.390625 16.234375 28.496094 16.828125 C 27.683594 17.363281 26.746094 17.703125 25.988281 18.304688 C 24.988281 19.097656 23.988281 20.457031 22.496094 21.589844 C 22.871094 21.730469 23.34375 22.378906 23.851562 22.636719 C 24.59375 23.015625 25.980469 23.433594 26.9375 23.851562 C 28.207031 24.40625 29.589844 24.679688 30.859375 25.242188 C 32.195312 25.832031 34.011719 26.996094 34.960938 27.402344 C 35.753906 27.742188 36.882812 27.734375 37.484375 27.984375 Z M 24.550781 24.433594 C 23.828125 24.132812 23.492188 23.566406 22.894531 23.339844 C 22.292969 23.109375 21.390625 23.207031 20.957031 23.0625 C 20.417969 23.894531 19.585938 24.125 19.105469 24.828125 C 18.644531 25.503906 18.160156 26.734375 17.578125 27.828125 C 17.136719 28.667969 16.625 29.324219 16.082031 30.203125 C 17.003906 29.714844 17.636719 29.617188 18.542969 29.101562 C 18.84375 28.929688 19.636719 28.328125 19.988281 28.113281 C 20.890625 27.570312 21.335938 27.367188 22.011719 26.835938 C 22.417969 26.515625 23.003906 25.632812 23.429688 25.230469 C 23.761719 24.914062 24.316406 24.582031 24.550781 24.433594 Z M 13.367188 17.792969 C 13.367188 18.660156 12.941406 19.503906 12.921875 20.34375 C 12.886719 21.988281 13.253906 23.601562 13.261719 25.308594 C 13.265625 26.234375 12.96875 27.277344 13.039062 28.140625 C 13.101562 28.949219 13.671875 29.695312 13.667969 30.492188 C 14.496094 29.082031 15.253906 28.738281 15.941406 27.777344 C 16.6875 26.738281 17.582031 25.078125 18.128906 24.257812 C 18.71875 23.375 18.90625 22.746094 19.449219 21.894531 C 19.476562 21.851562 19.75 21.394531 19.785156 21.355469 C 19.84375 21.253906 19.925781 21.160156 20.023438 21.082031 C 20.582031 20.648438 21.164062 20.238281 21.738281 19.855469 C 23.125 18.933594 24.484375 18.152344 25.429688 17.496094 C 26.335938 16.867188 27.179688 16.035156 28.0625 15.503906 C 29.050781 14.914062 30.132812 14.449219 31.042969 13.902344 C 32.015625 13.316406 32.882812 12.425781 33.78125 11.917969 C 34.964844 11.25 36.0625 10.761719 37.136719 10.152344 C 38.011719 9.652344 38.851562 8.75 39.667969 8.289062 C 41.054688 7.503906 42.359375 6.757812 43.59375 6.003906 C 42.066406 6.621094 39.890625 7.195312 37.789062 8.050781 C 36.316406 8.652344 34.601562 9.417969 32.992188 10.085938 C 31.546875 10.6875 29.898438 11.109375 28.433594 11.714844 C 27.082031 12.273438 25.746094 12.96875 24.445312 13.515625 C 23.257812 14.015625 21.878906 14.226562 20.773438 14.675781 C 17.726562 15.914062 15.285156 17.195312 13.367188 17.792969 Z M 13.367188 17.792969 " fill-opacity="1" fill-rule="evenodd"/></svg>