<svg xmlns="http://www.w3.org/2000/svg" xmlns:xlink="http://www.w3.org/1999/xlink" width="58" zoomAndPan="magnify" viewBox="0 0 43.5 37.5" height="50" preserveAspectRatio="xMidYMid meet" version="1.0"><defs><clipPath id="cf0c964d9a"><path d="M 6 0.214844 L 11 0.214844 L 11 11 L 6 11 Z M 6 0.214844 " clip-rule="nonzero"/></clipPath><clipPath id="f54e593e39"><path d="M 0.0390625 0.214844 L 5 0.214844 L 5 11 L 0.0390625 11 Z M 0.0390625 0.214844 " clip-rule="nonzero"/></clipPath><clipPath id="c07ceede94"><path d="M 16 5 L 42.226562 5 L 42.226562 7 L 16 7 Z M 16 5 " clip-rule="nonzero"/></clipPath><clipPath id="1448ce421e"><path d="M 5 14 L 7 14 L 7 36.480469 L 5 36.480469 Z M 5 14 " clip-rule="nonzero"/></clipPath></defs><g clip-path="url(#cf0c964d9a)"><path fill="#0292b7" d="M 6.410156 8.808594 C 6.742188 9.679688 7.578125 10.304688 8.574219 10.304688 C 9.84375 10.304688 10.875 9.273438 10.875 8.003906 C 10.875 6.734375 9.84375 5.703125 8.574219 5.703125 C 8.097656 5.703125 7.65625 5.851562 7.285156 6.09375 C 7.320312 5.832031 7.371094 5.566406 7.433594 5.316406 C 7.882812 3.222656 9.039062 1.875 10.269531 0.214844 C 8.332031 1.433594 6.730469 3.230469 6.324219 5.539062 C 6.144531 6.601562 5.996094 7.769531 6.410156 8.808594 Z M 6.410156 8.808594 " fill-opacity="1" fill-rule="nonzero"/></g><g clip-path="url(#f54e593e39)"><path fill="#0292b7" d="M 0.453125 8.808594 C 0.785156 9.679688 1.621094 10.304688 2.617188 10.304688 C 3.886719 10.304688 4.917969 9.273438 4.917969 8.003906 C 4.917969 6.734375 3.886719 5.703125 2.617188 5.703125 C 2.140625 5.703125 1.699219 5.851562 1.328125 6.09375 C 1.363281 5.832031 1.414062 5.566406 1.476562 5.316406 C 1.925781 3.222656 3.082031 1.875 4.3125 0.214844 C 2.375 1.433594 0.785156 3.230469 0.367188 5.539062 C 0.1875 6.601562 0.0390625 7.769531 0.453125 8.808594 Z M 0.453125 8.808594 " fill-opacity="1" fill-rule="nonzero"/></g><g clip-path="url(#c07ceede94)"><path fill="#0292b7" d="M 16.753906 5.261719 L 43.417969 5.261719 L 43.417969 6.378906 L 16.753906 6.378906 Z M 16.753906 5.261719 " fill-opacity="1" fill-rule="nonzero"/></g><g clip-path="url(#1448ce421e)"><path fill="#0292b7" d="M 5.53125 14.671875 L 6.644531 14.671875 L 6.644531 42.5625 L 5.53125 42.5625 Z M 5.53125 14.671875 " fill-opacity="1" fill-rule="nonzero"/></g></svg>