<svg xmlns="http://www.w3.org/2000/svg" xmlns:xlink="http://www.w3.org/1999/xlink" width="70" zoomAndPan="magnify" viewBox="0 0 52.5 37.5" height="50" preserveAspectRatio="xMidYMid meet" version="1.0"><defs><filter x="0%" y="0%" width="100%" height="100%" id="0e3634ce34"><feColorMatrix values="0 0 0 0 1 0 0 0 0 1 0 0 0 0 1 0 0 0 1 0" color-interpolation-filters="sRGB"/></filter><g/><clipPath id="5f70c3751a"><path d="M 0.0976562 0 L 51.90625 0 L 51.90625 37.007812 L 0.0976562 37.007812 Z M 0.0976562 0 " clip-rule="nonzero"/></clipPath><clipPath id="52777b7b11"><path d="M 0.0976562 0 L 51.90625 0 L 51.90625 37.007812 L 0.0976562 37.007812 Z M 0.0976562 0 " clip-rule="nonzero"/></clipPath><clipPath id="709c38c63f"><path d="M -45.242188 -62.589844 L 83.625 -43.742188 L 62.097656 103.476562 L -66.773438 84.628906 Z M -45.242188 -62.589844 " clip-rule="nonzero"/></clipPath><clipPath id="3e275a3ff6"><path d="M 0.0976562 0 L 51.90625 0 L 51.90625 37.007812 L 0.0976562 37.007812 Z M 0.0976562 0 " clip-rule="nonzero"/></clipPath><clipPath id="1175a1ea9e"><path d="M -45.242188 -62.589844 L 83.625 -43.742188 L 62.097656 103.476562 L -66.773438 84.628906 Z M -45.242188 -62.589844 " clip-rule="nonzero"/></clipPath><clipPath id="d92268e0e7"><path d="M 0.0976562 0 L 51.90625 0 L 51.90625 37.007812 L 0.0976562 37.007812 Z M 0.0976562 0 " clip-rule="nonzero"/></clipPath><clipPath id="0eab1b5caf"><path d="M -45.242188 -62.589844 L 83.625 -43.742188 L 62.097656 103.476562 L -66.773438 84.628906 Z M -45.242188 -62.589844 " clip-rule="nonzero"/></clipPath><clipPath id="9fa9ed6f9d"><path d="M -45.617188 -60.027344 L 83.25 -41.183594 L 62.410156 101.339844 L -66.460938 82.496094 Z M -45.617188 -60.027344 " clip-rule="nonzero"/></clipPath><clipPath id="8363aedeac"><path d="M -45.617188 -60.027344 L 83.25 -41.183594 L 62.410156 101.339844 L -66.460938 82.496094 Z M -45.617188 -60.027344 " clip-rule="nonzero"/></clipPath><clipPath id="195c42c952"><path d="M -45.617188 -60.027344 L 83.25 -41.183594 L 62.410156 101.339844 L -66.460938 82.496094 Z M -45.617188 -60.027344 " clip-rule="nonzero"/></clipPath><linearGradient x1="-3.239342" gradientTransform="matrix(0.426087, 0.0623099, -0.0624177, 0.426824, 1.472705, 0.244372)" y1="44.5" x2="128.243053" gradientUnits="userSpaceOnUse" y2="44.5" id="db189bd436"><stop stop-opacity="1" stop-color="rgb(36.468506%, 87.838745%, 90.19928%)" offset="0"/><stop stop-opacity="1" stop-color="rgb(36.468506%, 87.838745%, 90.19928%)" offset="0.015625"/><stop stop-opacity="1" stop-color="rgb(36.468506%, 87.838745%, 90.19928%)" offset="0.0234375"/><stop stop-opacity="1" stop-color="rgb(36.120605%, 87.277222%, 89.985657%)" offset="0.0273438"/><stop stop-opacity="1" stop-color="rgb(35.772705%, 86.715698%, 89.772034%)" offset="0.03125"/><stop stop-opacity="1" stop-color="rgb(35.360718%, 86.051941%, 89.520264%)" offset="0.0351563"/><stop stop-opacity="1" stop-color="rgb(34.950256%, 85.389709%, 89.268494%)" offset="0.0390625"/><stop stop-opacity="1" stop-color="rgb(34.538269%, 84.725952%, 89.015198%)" offset="0.0429688"/><stop stop-opacity="1" stop-color="rgb(34.127808%, 84.062195%, 88.763428%)" offset="0.046875"/><stop stop-opacity="1" stop-color="rgb(33.71582%, 83.398438%, 88.510132%)" offset="0.0507813"/><stop stop-opacity="1" stop-color="rgb(33.303833%, 82.73468%, 88.258362%)" offset="0.0546875"/><stop stop-opacity="1" stop-color="rgb(32.891846%, 82.070923%, 88.006592%)" offset="0.0585938"/><stop stop-opacity="1" stop-color="rgb(32.481384%, 81.407166%, 87.754822%)" offset="0.0625"/><stop stop-opacity="1" stop-color="rgb(32.069397%, 80.743408%, 87.501526%)" offset="0.0664062"/><stop stop-opacity="1" stop-color="rgb(31.658936%, 80.081177%, 87.249756%)" offset="0.0703125"/><stop stop-opacity="1" stop-color="rgb(31.246948%, 79.417419%, 86.997986%)" offset="0.0742188"/><stop stop-opacity="1" stop-color="rgb(30.836487%, 78.753662%, 86.746216%)" offset="0.078125"/><stop stop-opacity="1" stop-color="rgb(30.4245%, 78.089905%, 86.49292%)" offset="0.0820313"/><stop stop-opacity="1" stop-color="rgb(30.014038%, 77.426147%, 86.24115%)" offset="0.0859375"/><stop stop-opacity="1" stop-color="rgb(29.602051%, 76.76239%, 85.987854%)" offset="0.0898438"/><stop stop-opacity="1" stop-color="rgb(29.190063%, 76.100159%, 85.736084%)" offset="0.09375"/><stop stop-opacity="1" stop-color="rgb(28.778076%, 75.436401%, 85.484314%)" offset="0.0976562"/><stop stop-opacity="1" stop-color="rgb(28.367615%, 74.772644%, 85.232544%)" offset="0.101563"/><stop stop-opacity="1" stop-color="rgb(27.955627%, 74.108887%, 84.979248%)" offset="0.105469"/><stop stop-opacity="1" stop-color="rgb(27.545166%, 73.445129%, 84.727478%)" offset="0.109375"/><stop stop-opacity="1" stop-color="rgb(27.133179%, 72.781372%, 84.475708%)" offset="0.113281"/><stop stop-opacity="1" stop-color="rgb(26.722717%, 72.119141%, 84.223938%)" offset="0.117188"/><stop stop-opacity="1" stop-color="rgb(26.31073%, 71.455383%, 83.970642%)" offset="0.121094"/><stop stop-opacity="1" stop-color="rgb(25.898743%, 70.791626%, 83.718872%)" offset="0.125"/><stop stop-opacity="1" stop-color="rgb(25.486755%, 70.127869%, 83.465576%)" offset="0.128906"/><stop stop-opacity="1" stop-color="rgb(25.076294%, 69.464111%, 83.213806%)" offset="0.132812"/><stop stop-opacity="1" stop-color="rgb(24.664307%, 68.800354%, 82.962036%)" offset="0.136719"/><stop stop-opacity="1" stop-color="rgb(24.253845%, 68.138123%, 82.710266%)" offset="0.140625"/><stop stop-opacity="1" stop-color="rgb(23.841858%, 67.474365%, 82.45697%)" offset="0.144531"/><stop stop-opacity="1" stop-color="rgb(23.431396%, 66.810608%, 82.2052%)" offset="0.148438"/><stop stop-opacity="1" stop-color="rgb(23.019409%, 66.146851%, 81.95343%)" offset="0.152344"/><stop stop-opacity="1" stop-color="rgb(22.608948%, 65.483093%, 81.70166%)" offset="0.15625"/><stop stop-opacity="1" stop-color="rgb(22.19696%, 64.819336%, 81.448364%)" offset="0.160156"/><stop stop-opacity="1" stop-color="rgb(21.784973%, 64.157104%, 81.196594%)" offset="0.164063"/><stop stop-opacity="1" stop-color="rgb(21.372986%, 63.493347%, 80.943298%)" offset="0.167969"/><stop stop-opacity="1" stop-color="rgb(20.962524%, 62.82959%, 80.691528%)" offset="0.171875"/><stop stop-opacity="1" stop-color="rgb(20.550537%, 62.165833%, 80.439758%)" offset="0.175781"/><stop stop-opacity="1" stop-color="rgb(20.140076%, 61.502075%, 80.187988%)" offset="0.179688"/><stop stop-opacity="1" stop-color="rgb(19.728088%, 60.838318%, 79.934692%)" offset="0.183594"/><stop stop-opacity="1" stop-color="rgb(19.317627%, 60.176086%, 79.682922%)" offset="0.1875"/><stop stop-opacity="1" stop-color="rgb(18.90564%, 59.512329%, 79.431152%)" offset="0.191406"/><stop stop-opacity="1" stop-color="rgb(18.493652%, 58.848572%, 79.179382%)" offset="0.195313"/><stop stop-opacity="1" stop-color="rgb(18.081665%, 58.184814%, 78.926086%)" offset="0.199219"/><stop stop-opacity="1" stop-color="rgb(17.671204%, 57.521057%, 78.674316%)" offset="0.203125"/><stop stop-opacity="1" stop-color="rgb(17.259216%, 56.8573%, 78.421021%)" offset="0.207031"/><stop stop-opacity="1" stop-color="rgb(16.848755%, 56.195068%, 78.16925%)" offset="0.210938"/><stop stop-opacity="1" stop-color="rgb(16.436768%, 55.531311%, 77.91748%)" offset="0.214844"/><stop stop-opacity="1" stop-color="rgb(16.026306%, 54.867554%, 77.66571%)" offset="0.21875"/><stop stop-opacity="1" stop-color="rgb(15.614319%, 54.203796%, 77.412415%)" offset="0.222656"/><stop stop-opacity="1" stop-color="rgb(15.203857%, 53.540039%, 77.160645%)" offset="0.226563"/><stop stop-opacity="1" stop-color="rgb(14.79187%, 52.876282%, 76.908875%)" offset="0.230469"/><stop stop-opacity="1" stop-color="rgb(14.379883%, 52.21405%, 76.657104%)" offset="0.234375"/><stop stop-opacity="1" stop-color="rgb(13.967896%, 51.550293%, 76.403809%)" offset="0.238281"/><stop stop-opacity="1" stop-color="rgb(13.557434%, 50.886536%, 76.152039%)" offset="0.242188"/><stop stop-opacity="1" stop-color="rgb(13.145447%, 50.222778%, 75.898743%)" offset="0.246094"/><stop stop-opacity="1" stop-color="rgb(12.734985%, 49.559021%, 75.646973%)" offset="0.25"/><stop stop-opacity="1" stop-color="rgb(12.322998%, 48.895264%, 75.395203%)" offset="0.253906"/><stop stop-opacity="1" stop-color="rgb(11.912537%, 48.233032%, 75.143433%)" offset="0.257813"/><stop stop-opacity="1" stop-color="rgb(11.500549%, 47.569275%, 74.890137%)" offset="0.261719"/><stop stop-opacity="1" stop-color="rgb(11.088562%, 46.905518%, 74.638367%)" offset="0.265625"/><stop stop-opacity="1" stop-color="rgb(10.676575%, 46.24176%, 74.386597%)" offset="0.269531"/><stop stop-opacity="1" stop-color="rgb(10.266113%, 45.578003%, 74.134827%)" offset="0.273438"/><stop stop-opacity="1" stop-color="rgb(9.854126%, 44.914246%, 73.881531%)" offset="0.277344"/><stop stop-opacity="1" stop-color="rgb(9.443665%, 44.252014%, 73.629761%)" offset="0.28125"/><stop stop-opacity="1" stop-color="rgb(9.031677%, 43.588257%, 73.376465%)" offset="0.285156"/><stop stop-opacity="1" stop-color="rgb(8.621216%, 42.9245%, 73.124695%)" offset="0.289063"/><stop stop-opacity="1" stop-color="rgb(8.209229%, 42.260742%, 72.872925%)" offset="0.292969"/><stop stop-opacity="1" stop-color="rgb(7.798767%, 41.596985%, 72.621155%)" offset="0.296875"/><stop stop-opacity="1" stop-color="rgb(7.38678%, 40.933228%, 72.367859%)" offset="0.300781"/><stop stop-opacity="1" stop-color="rgb(6.974792%, 40.270996%, 72.116089%)" offset="0.304688"/><stop stop-opacity="1" stop-color="rgb(6.562805%, 39.607239%, 71.864319%)" offset="0.308594"/><stop stop-opacity="1" stop-color="rgb(6.152344%, 38.943481%, 71.612549%)" offset="0.3125"/><stop stop-opacity="1" stop-color="rgb(5.740356%, 38.279724%, 71.359253%)" offset="0.316406"/><stop stop-opacity="1" stop-color="rgb(5.329895%, 37.615967%, 71.107483%)" offset="0.320313"/><stop stop-opacity="1" stop-color="rgb(4.917908%, 36.952209%, 70.854187%)" offset="0.324219"/><stop stop-opacity="1" stop-color="rgb(4.507446%, 36.289978%, 70.602417%)" offset="0.328125"/><stop stop-opacity="1" stop-color="rgb(4.095459%, 35.626221%, 70.350647%)" offset="0.332031"/><stop stop-opacity="1" stop-color="rgb(3.683472%, 34.962463%, 70.098877%)" offset="0.335938"/><stop stop-opacity="1" stop-color="rgb(3.271484%, 34.298706%, 69.845581%)" offset="0.339844"/><stop stop-opacity="1" stop-color="rgb(2.861023%, 33.634949%, 69.593811%)" offset="0.34375"/><stop stop-opacity="1" stop-color="rgb(2.449036%, 32.971191%, 69.342041%)" offset="0.347656"/><stop stop-opacity="1" stop-color="rgb(2.038574%, 32.30896%, 69.090271%)" offset="0.351563"/><stop stop-opacity="1" stop-color="rgb(1.626587%, 31.645203%, 68.836975%)" offset="0.355469"/><stop stop-opacity="1" stop-color="rgb(1.216125%, 30.981445%, 68.585205%)" offset="0.359375"/><stop stop-opacity="1" stop-color="rgb(0.804138%, 30.317688%, 68.331909%)" offset="0.363281"/><stop stop-opacity="1" stop-color="rgb(0.393677%, 29.653931%, 68.080139%)" offset="0.367188"/><stop stop-opacity="1" stop-color="rgb(0.196838%, 29.336548%, 67.959595%)" offset="0.371094"/><stop stop-opacity="1" stop-color="rgb(0%, 29.019165%, 67.83905%)" offset="0.375"/><stop stop-opacity="1" stop-color="rgb(0%, 29.019165%, 67.83905%)" offset="0.5"/><stop stop-opacity="1" stop-color="rgb(0%, 29.019165%, 67.83905%)" offset="1"/></linearGradient><clipPath id="54b19fe262"><rect x="0" width="52" y="0" height="38"/></clipPath><clipPath id="3c0b998cd9"><path d="M 0.0976562 0 L 51.90625 0 L 51.90625 37.007812 L 0.0976562 37.007812 Z M 0.0976562 0 " clip-rule="nonzero"/></clipPath><clipPath id="6aab181283"><path d="M -45.242188 -62.589844 L 83.625 -43.742188 L 62.097656 103.476562 L -66.773438 84.628906 Z M -45.242188 -62.589844 " clip-rule="nonzero"/></clipPath><clipPath id="20d4e82de3"><path d="M 0.0976562 0 L 51.90625 0 L 51.90625 37.007812 L 0.0976562 37.007812 Z M 0.0976562 0 " clip-rule="nonzero"/></clipPath><clipPath id="929843c99f"><path d="M -45.242188 -62.589844 L 83.625 -43.742188 L 62.097656 103.476562 L -66.773438 84.628906 Z M -45.242188 -62.589844 " clip-rule="nonzero"/></clipPath><clipPath id="2967e223c1"><rect x="0" width="52" y="0" height="38"/></clipPath><clipPath id="c67218b626"><rect x="0" width="52" y="0" height="38"/></clipPath><mask id="0da290d0a3"><g filter="url(#0e3634ce34)"><g transform="matrix(1, 0, 0, 1, 0.000000000000000014, -0.000000000000001478)"><g clip-path="url(#c67218b626)"><g clip-path="url(#3c0b998cd9)"><g clip-path="url(#6aab181283)"><g transform="matrix(1, 0, 0, 1, 0.000000000000000014, -0.000000000000001478)"><g clip-path="url(#2967e223c1)"><g clip-path="url(#20d4e82de3)"><g clip-path="url(#929843c99f)"><g fill="#000000" fill-opacity="1"><g transform="translate(-1.980987, 23.061767)"><g><path d="M 9.390625 12.203125 L 9.375 12.203125 C 9.175781 12.117188 9.035156 12.015625 8.953125 11.890625 C 8.867188 11.765625 8.832031 11.65625 8.84375 11.5625 C 8.84375 11.539062 8.859375 11.515625 8.890625 11.484375 L 8.90625 11.375 C 8.945312 11.082031 9.078125 10.664062 9.296875 10.125 C 9.523438 9.59375 9.804688 8.957031 10.140625 8.21875 C 10.484375 7.476562 10.859375 6.664062 11.265625 5.78125 C 11.679688 4.90625 12.101562 3.96875 12.53125 2.96875 C 12.957031 1.976562 13.363281 0.960938 13.75 -0.078125 C 14.144531 -1.128906 14.488281 -2.191406 14.78125 -3.265625 C 15.070312 -4.335938 15.296875 -5.394531 15.453125 -6.4375 C 15.597656 -7.476562 15.65625 -8.484375 15.625 -9.453125 C 15.59375 -10.421875 15.429688 -11.328125 15.140625 -12.171875 C 14.847656 -13.023438 14.398438 -13.785156 13.796875 -14.453125 C 13.203125 -15.128906 12.425781 -15.703125 11.46875 -16.171875 C 10.519531 -16.648438 9.351562 -16.988281 7.96875 -17.1875 C 7.5625 -17.25 7.132812 -17.296875 6.6875 -17.328125 C 6.382812 -17.347656 6.082031 -17.375 5.78125 -17.40625 C 5.488281 -17.4375 5.203125 -17.472656 4.921875 -17.515625 C 4.273438 -17.609375 3.734375 -17.722656 3.296875 -17.859375 C 2.859375 -17.992188 2.648438 -18.132812 2.671875 -18.28125 C 2.679688 -18.375 2.851562 -18.472656 3.1875 -18.578125 C 3.53125 -18.691406 4.066406 -18.796875 4.796875 -18.890625 C 5.535156 -18.992188 6.515625 -19.085938 7.734375 -19.171875 C 8.953125 -19.265625 10.441406 -19.34375 12.203125 -19.40625 C 13.972656 -19.476562 16.054688 -19.53125 18.453125 -19.5625 C 20.847656 -19.601562 23.597656 -19.617188 26.703125 -19.609375 C 27.171875 -20.210938 27.515625 -20.617188 27.734375 -20.828125 C 27.960938 -21.035156 28.148438 -21.128906 28.296875 -21.109375 C 28.367188 -21.097656 28.457031 -21.054688 28.5625 -20.984375 C 28.664062 -20.921875 28.753906 -20.847656 28.828125 -20.765625 C 28.898438 -20.679688 28.929688 -20.601562 28.921875 -20.53125 C 28.898438 -20.4375 28.8125 -20.320312 28.65625 -20.1875 C 28.5 -20.0625 28.304688 -19.863281 28.078125 -19.59375 C 28.566406 -19.59375 29.203125 -19.59375 29.984375 -19.59375 C 30.773438 -19.601562 31.671875 -19.601562 32.671875 -19.59375 C 33.679688 -19.59375 34.757812 -19.578125 35.90625 -19.546875 C 37.0625 -19.523438 38.242188 -19.5 39.453125 -19.46875 C 40.660156 -19.4375 41.863281 -19.390625 43.0625 -19.328125 C 44.257812 -19.265625 45.40625 -19.1875 46.5 -19.09375 C 47.59375 -19 48.597656 -18.882812 49.515625 -18.75 C 50.378906 -18.625 51.128906 -18.476562 51.765625 -18.3125 C 52.398438 -18.144531 52.890625 -17.957031 53.234375 -17.75 C 53.578125 -17.539062 53.726562 -17.300781 53.6875 -17.03125 C 53.664062 -16.925781 53.578125 -16.882812 53.421875 -16.90625 C 53.347656 -16.914062 53.273438 -16.941406 53.203125 -16.984375 C 53.015625 -17.085938 52.894531 -17.171875 52.84375 -17.234375 C 52.800781 -17.304688 52.78125 -17.363281 52.78125 -17.40625 C 52.789062 -17.445312 52.789062 -17.476562 52.78125 -17.5 C 52.769531 -17.53125 52.707031 -17.554688 52.59375 -17.578125 C 52.476562 -17.609375 52.265625 -17.648438 51.953125 -17.703125 L 50 -17.96875 C 49.039062 -18.082031 47.929688 -18.1875 46.671875 -18.28125 C 45.421875 -18.375 44.050781 -18.453125 42.5625 -18.515625 C 41.070312 -18.585938 39.492188 -18.640625 37.828125 -18.671875 C 36.171875 -18.710938 34.46875 -18.742188 32.71875 -18.765625 C 30.976562 -18.796875 29.222656 -18.816406 27.453125 -18.828125 C 26.941406 -18.160156 26.378906 -17.351562 25.765625 -16.40625 C 25.160156 -15.46875 24.515625 -14.425781 23.828125 -13.28125 C 23.140625 -12.144531 22.425781 -10.9375 21.6875 -9.65625 C 20.957031 -8.375 20.222656 -7.0625 19.484375 -5.71875 C 18.742188 -4.382812 18.007812 -3.050781 17.28125 -1.71875 C 16.550781 -0.394531 15.851562 0.890625 15.1875 2.140625 C 14.53125 3.398438 13.910156 4.578125 13.328125 5.671875 C 12.628906 6.953125 12.007812 8.085938 11.46875 9.078125 C 10.925781 10.078125 10.476562 10.851562 10.125 11.40625 C 9.769531 11.957031 9.523438 12.222656 9.390625 12.203125 Z M 14.4375 1.3125 C 15.070312 0.132812 15.726562 -1.078125 16.40625 -2.328125 C 17.09375 -3.578125 17.78125 -4.832031 18.46875 -6.09375 C 19.164062 -7.351562 19.859375 -8.585938 20.546875 -9.796875 C 21.234375 -11.003906 21.90625 -12.160156 22.5625 -13.265625 C 23.21875 -14.378906 23.847656 -15.40625 24.453125 -16.34375 C 25.054688 -17.289062 25.609375 -18.117188 26.109375 -18.828125 C 25.953125 -18.816406 25.617188 -18.804688 25.109375 -18.796875 C 24.597656 -18.796875 23.953125 -18.789062 23.171875 -18.78125 C 22.390625 -18.78125 21.515625 -18.773438 20.546875 -18.765625 C 19.585938 -18.753906 18.578125 -18.738281 17.515625 -18.71875 C 16.453125 -18.695312 15.375 -18.675781 14.28125 -18.65625 C 13.1875 -18.632812 12.117188 -18.609375 11.078125 -18.578125 C 10.046875 -18.546875 9.078125 -18.507812 8.171875 -18.46875 C 7.265625 -18.425781 6.46875 -18.378906 5.78125 -18.328125 C 5.101562 -18.285156 4.566406 -18.234375 4.171875 -18.171875 C 3.785156 -18.117188 3.585938 -18.054688 3.578125 -17.984375 C 3.578125 -17.984375 3.691406 -17.992188 3.921875 -18.015625 C 4.148438 -18.046875 4.46875 -18.066406 4.875 -18.078125 C 5.28125 -18.085938 5.753906 -18.082031 6.296875 -18.0625 C 6.835938 -18.050781 7.410156 -18.003906 8.015625 -17.921875 C 9.742188 -17.660156 11.191406 -17.1875 12.359375 -16.5 C 13.535156 -15.8125 14.457031 -14.9375 15.125 -13.875 C 15.789062 -12.820312 16.222656 -11.609375 16.421875 -10.234375 C 16.617188 -8.859375 16.597656 -7.351562 16.359375 -5.71875 C 16.191406 -4.550781 15.9375 -3.367188 15.59375 -2.171875 C 15.257812 -0.984375 14.875 0.175781 14.4375 1.3125 Z M 14.4375 1.3125 "/></g></g></g></g></g></g></g></g></g></g></g></g></mask><clipPath id="8a8d80c229"><path d="M 0.0976562 0 L 51.90625 0 L 51.90625 37.007812 L 0.0976562 37.007812 Z M 0.0976562 0 " clip-rule="nonzero"/></clipPath><clipPath id="c1052c5b9c"><path d="M -45.242188 -62.589844 L 83.625 -43.742188 L 62.097656 103.476562 L -66.773438 84.628906 Z M -45.242188 -62.589844 " clip-rule="nonzero"/></clipPath><clipPath id="fc26ee8b80"><path d="M -45.617188 -60.027344 L 83.25 -41.183594 L 62.410156 101.339844 L -66.460938 82.496094 Z M -45.617188 -60.027344 " clip-rule="nonzero"/></clipPath><clipPath id="548cf466cc"><path d="M -45.617188 -60.027344 L 83.25 -41.183594 L 62.410156 101.339844 L -66.460938 82.496094 Z M -45.617188 -60.027344 " clip-rule="nonzero"/></clipPath><clipPath id="c319b0852b"><path d="M -45.617188 -60.027344 L 83.25 -41.183594 L 62.410156 101.339844 L -66.460938 82.496094 Z M -45.617188 -60.027344 " clip-rule="nonzero"/></clipPath><clipPath id="feeb6b33d7"><rect x="0" width="52" y="0" height="38"/></clipPath><clipPath id="8cda337563"><rect x="0" width="52" y="0" height="38"/></clipPath><clipPath id="5fe474518a"><rect x="0" width="52" y="0" height="38"/></clipPath></defs><g clip-path="url(#5f70c3751a)"><g transform="matrix(1, 0, 0, 1, 0.000000000000000014, -0.000000000000001478)"><g clip-path="url(#5fe474518a)"><g clip-path="url(#52777b7b11)"><g clip-path="url(#709c38c63f)"><g transform="matrix(1, 0, 0, 1, 0.000000000000000014, -0.000000000000001478)"><g clip-path="url(#8cda337563)"><g clip-path="url(#3e275a3ff6)"><g clip-path="url(#1175a1ea9e)"><g mask="url(#0da290d0a3)"><g transform="matrix(1, 0, 0, 1, 0.000000000000000014, -0.000000000000001478)"><g clip-path="url(#feeb6b33d7)"><g clip-path="url(#8a8d80c229)"><g clip-path="url(#c1052c5b9c)"><g clip-path="url(#fc26ee8b80)"><g clip-path="url(#548cf466cc)"><g clip-path="url(#c319b0852b)"><path fill="url(#db189bd436)" d="M 1.183594 -7.417969 L -5.199219 36.230469 L 50.824219 44.425781 L 57.207031 0.773438 Z M 1.183594 -7.417969 " fill-rule="nonzero"/></g></g></g></g></g></g></g></g></g></g></g></g></g></g></g></g></g></svg>