<svg xmlns="http://www.w3.org/2000/svg" xmlns:xlink="http://www.w3.org/1999/xlink" width="200" zoomAndPan="magnify" viewBox="0 0 150 37.5" height="50" preserveAspectRatio="xMidYMid meet" version="1.0"><defs><g/><clipPath id="d19d33b507"><path d="M 0.171875 9 L 31 9 L 31 30 L 0.171875 30 Z M 0.171875 9 " clip-rule="nonzero"/></clipPath><clipPath id="9fb5c92e67"><path d="M 17 18 L 43 18 L 43 33.816406 L 17 33.816406 Z M 17 18 " clip-rule="nonzero"/></clipPath><clipPath id="33b6c8aee0"><path d="M 54 18 L 81 18 L 81 33.816406 L 54 33.816406 Z M 54 18 " clip-rule="nonzero"/></clipPath><clipPath id="d95d222553"><path d="M 100 18 L 125 18 L 125 33.816406 L 100 33.816406 Z M 100 18 " clip-rule="nonzero"/></clipPath><clipPath id="ea30453cba"><rect x="0" width="126" y="0" height="34"/></clipPath></defs><g transform="matrix(1, 0, 0, 1, 11, 1)"><g clip-path="url(#ea30453cba)"><g clip-path="url(#d19d33b507)"><g fill="#000000" fill-opacity="1"><g transform="translate(4.644575, 25.989105)"><g><path d="M 26.054688 -15.179688 C 25.800781 -16.1875 24.785156 -16.691406 23.007812 -16.691406 C 21.082031 -16.691406 18.832031 -15.632812 16.257812 -13.519531 C 14.914062 -12.414062 13.097656 -10.605469 10.804688 -8.097656 L 8.210938 -5.285156 C 6.433594 -3.359375 4.921875 -1.949219 3.675781 -1.058594 C 2.9375 -0.539062 2.199219 -0.148438 1.460938 0.121094 C -0.28125 -0.394531 -1.726562 -0.625 -2.863281 -0.578125 C -3.839844 -0.527344 -4.324219 -0.320312 -4.324219 0.0507812 C -4.324219 0.351562 -3.957031 0.570312 -3.21875 0.699219 C -2.769531 0.789062 -2.023438 0.835938 -0.984375 0.835938 C -0.261719 0.835938 0.519531 0.707031 1.363281 0.453125 C 1.414062 0.472656 1.671875 0.578125 2.136719 0.773438 C 6.269531 2.503906 9.589844 3.367188 12.105469 3.367188 C 13.851562 3.367188 15.152344 2.707031 16.015625 1.390625 C 16.046875 1.355469 16.0625 1.3125 16.0625 1.253906 C 16.0625 1.203125 16.046875 1.164062 16.015625 1.128906 C 15.980469 1.097656 15.949219 1.097656 15.914062 1.128906 C 15.875 1.164062 15.835938 1.1875 15.804688 1.203125 C 15.15625 2.066406 14.011719 2.496094 12.363281 2.496094 C 10.988281 2.496094 8.996094 2.175781 6.390625 1.535156 C 4.867188 1.167969 3.390625 0.75 1.964844 0.28125 C 4.800781 -0.691406 8.148438 -3.308594 12.007812 -7.570312 L 15.324219 -11.246094 C 17.421875 -13.5625 19.144531 -15.074219 20.488281 -15.78125 C 21.265625 -16.183594 22.054688 -16.382812 22.859375 -16.382812 C 24.152344 -16.382812 25.066406 -15.90625 25.601562 -14.957031 C 25.753906 -14.6875 25.851562 -14.550781 25.882812 -14.550781 C 25.964844 -14.566406 26.023438 -14.640625 26.054688 -14.773438 C 26.085938 -14.910156 26.085938 -15.046875 26.054688 -15.179688 Z M 26.054688 -15.179688 "/></g></g></g></g><g fill="#000000" fill-opacity="1"><g transform="translate(16.491789, 25.989105)"><g><path d="M 9.671875 -7.203125 C 9.132812 -7.25 8.570312 -7.089844 7.988281 -6.722656 C 7.816406 -6.625 7.34375 -6.253906 6.574219 -5.617188 C 7.074219 -6.101562 7.332031 -6.476562 7.347656 -6.746094 C 7.390625 -7.117188 7.234375 -7.339844 6.882812 -7.421875 C 6.644531 -7.472656 6.332031 -7.457031 5.949219 -7.375 C 4.84375 -7.121094 3.648438 -6.535156 2.371094 -5.621094 C 1.09375 -4.710938 0.148438 -3.757812 -0.46875 -2.765625 C -1.007812 -1.929688 -1.277344 -1.226562 -1.277344 -0.652344 C -1.277344 -0.101562 -0.992188 0.171875 -0.417969 0.171875 C 0.304688 0.171875 1.511719 -0.539062 3.207031 -1.964844 C 2.871094 -1.457031 2.703125 -1.019531 2.703125 -0.652344 C 2.703125 -0.101562 3.003906 0.171875 3.601562 0.171875 C 4.175781 0.171875 5.453125 -0.648438 7.433594 -2.285156 C 7.851562 -2.636719 8.296875 -3.035156 8.761719 -3.476562 C 8.796875 -3.511719 8.796875 -3.566406 8.761719 -3.648438 C 8.730469 -3.714844 8.679688 -3.742188 8.617188 -3.722656 C 8.550781 -3.691406 8.5 -3.660156 8.46875 -3.625 C 7.476562 -2.734375 6.675781 -2.050781 6.070312 -1.585938 C 4.742188 -0.5625 3.929688 -0.113281 3.625 -0.246094 C 3.558594 -0.285156 3.527344 -0.347656 3.527344 -0.429688 C 3.527344 -0.898438 4.566406 -2.1875 6.648438 -4.300781 C 7.574219 -5.242188 8.582031 -6.210938 9.671875 -7.203125 Z M 7.003906 -6.820312 C 7.003906 -6.550781 6.757812 -6.140625 6.269531 -5.59375 C 4.023438 -3.003906 2.042969 -1.265625 0.332031 -0.382812 C 0.0117188 -0.207031 -0.203125 -0.148438 -0.320312 -0.195312 C -0.476562 -0.269531 -0.515625 -0.414062 -0.441406 -0.625 C -0.3125 -1.042969 0.0976562 -1.660156 0.785156 -2.46875 C 1.121094 -2.855469 1.476562 -3.222656 1.84375 -3.578125 C 4.308594 -5.902344 5.929688 -7.066406 6.699219 -7.066406 C 6.902344 -7.066406 7.003906 -6.984375 7.003906 -6.820312 Z M 8.097656 -8.285156 C 7.617188 -8.824219 7.398438 -9.472656 7.449219 -10.226562 C 7.480469 -10.765625 7.304688 -11.035156 6.917969 -11.035156 C 6.550781 -11.035156 6.375 -10.796875 6.390625 -10.324219 C 6.40625 -9.972656 6.582031 -9.558594 6.917969 -9.082031 C 7.253906 -8.605469 7.582031 -8.273438 7.902344 -8.085938 C 7.96875 -8.019531 8.023438 -7.988281 8.074219 -7.988281 C 8.1875 -7.988281 8.246094 -8.011719 8.246094 -8.0625 C 8.214844 -8.113281 8.164062 -8.183594 8.097656 -8.285156 Z M 8.097656 -8.285156 "/></g></g></g><g fill="#000000" fill-opacity="1"><g transform="translate(24.394027, 25.989105)"><g><path d="M 8.886719 -3.527344 L 8.738281 -3.429688 C 6.273438 -1.226562 4.6875 -0.121094 3.980469 -0.121094 C 3.726562 -0.121094 3.601562 -0.207031 3.601562 -0.382812 C 3.601562 -0.75 4.214844 -1.503906 5.445312 -2.640625 C 5.707031 -2.894531 6.234375 -3.382812 7.03125 -4.105469 C 8.234375 -5.226562 8.851562 -6.101562 8.886719 -6.722656 C 8.902344 -6.917969 8.820312 -7.085938 8.644531 -7.21875 C 8.46875 -7.355469 8.273438 -7.421875 8.0625 -7.421875 C 7.441406 -7.421875 6.433594 -6.972656 5.039062 -6.070312 C 4.113281 -5.464844 3.171875 -4.785156 2.210938 -4.03125 C 3.539062 -5.507812 4.714844 -6.59375 5.738281 -7.300781 C 4.984375 -7.300781 4.398438 -7.164062 3.980469 -6.894531 C 3.328125 -6.476562 2.550781 -5.796875 1.660156 -4.855469 C 0.0859375 -3.199219 -0.996094 -1.796875 -1.585938 -0.652344 C -1.617188 -0.585938 -1.644531 -0.503906 -1.660156 -0.40625 C -1.691406 0.0859375 -1.589844 0.332031 -1.351562 0.332031 L -0.527344 -0.726562 C 1.003906 -2.675781 2.957031 -4.378906 5.332031 -5.835938 C 6.785156 -6.730469 7.65625 -7.117188 7.953125 -6.992188 C 8.007812 -6.976562 8.039062 -6.945312 8.039062 -6.894531 C 8.039062 -6.679688 7.765625 -6.347656 7.226562 -5.886719 C 6.890625 -5.601562 6.304688 -5.089844 5.46875 -4.351562 L 4.78125 -3.722656 C 3.371094 -2.414062 2.71875 -1.355469 2.828125 -0.554688 C 2.890625 -0.0351562 3.175781 0.222656 3.675781 0.222656 C 4.25 0.222656 5.046875 -0.132812 6.070312 -0.835938 C 6.777344 -1.320312 7.714844 -2.074219 8.886719 -3.097656 C 9.023438 -3.210938 9.09375 -3.292969 9.09375 -3.34375 C 9.09375 -3.546875 9.023438 -3.609375 8.886719 -3.527344 Z M 8.886719 -3.527344 "/></g></g></g><g clip-path="url(#9fb5c92e67)"><g fill="#000000" fill-opacity="1"><g transform="translate(32.800142, 25.989105)"><g><path d="M 9.242188 -7.175781 C 8.855469 -7.195312 8.546875 -7.117188 8.308594 -6.945312 C 8.273438 -6.925781 8.023438 -6.726562 7.558594 -6.339844 C 7.46875 -6.277344 7.308594 -6.125 7.078125 -5.886719 L 6.699219 -5.519531 L 6.625 -5.566406 C 7.042969 -6.019531 7.277344 -6.425781 7.324219 -6.796875 C 7.375 -7.214844 7.125 -7.421875 6.574219 -7.421875 C 5.984375 -7.421875 5.195312 -7.191406 4.203125 -6.722656 C 2.828125 -6.066406 1.617188 -5.21875 0.578125 -4.179688 C -0.691406 -2.902344 -1.328125 -1.734375 -1.328125 -0.675781 C -1.328125 -0.109375 -1.035156 0.171875 -0.453125 0.171875 C 0.390625 0.171875 1.941406 -0.894531 4.203125 -3.023438 L 4.253906 -2.972656 C 2.679688 -1.246094 1.070312 0.386719 -0.578125 1.917969 C -4.085938 5.171875 -7.359375 6.796875 -10.398438 6.796875 C -12.140625 6.796875 -13.472656 6.269531 -14.390625 5.210938 C -14.695312 4.859375 -14.886719 4.449219 -14.96875 3.980469 C -15.074219 3.695312 -15.144531 3.558594 -15.179688 3.578125 C -15.277344 3.59375 -15.324219 3.699219 -15.324219 3.894531 C -15.324219 5.027344 -14.671875 5.90625 -13.359375 6.539062 C -12.425781 6.996094 -11.394531 7.226562 -10.261719 7.226562 C -7.296875 7.226562 -4.234375 6.019531 -1.082031 3.601562 C -0.0078125 2.78125 1.3125 1.574219 2.875 -0.0234375 C 3.644531 -0.8125 4.503906 -1.742188 5.445312 -2.8125 L 8.285156 -6.070312 C 8.457031 -6.269531 8.773438 -6.636719 9.242188 -7.175781 Z M 6.917969 -6.84375 C 6.917969 -6.625 6.667969 -6.214844 6.167969 -5.617188 C 5.113281 -4.339844 3.746094 -3.011719 2.066406 -1.632812 C 0.738281 -0.542969 -0.09375 -0.0664062 -0.429688 -0.195312 C -0.59375 -0.269531 -0.644531 -0.421875 -0.578125 -0.652344 C -0.289062 -1.625 1.09375 -3.15625 3.578125 -5.234375 C 5.035156 -6.457031 6.035156 -7.066406 6.574219 -7.066406 C 6.804688 -7.066406 6.917969 -6.992188 6.917969 -6.84375 Z M 6.917969 -6.84375 "/></g></g></g></g><g fill="#000000" fill-opacity="1"><g transform="translate(40.444298, 25.989105)"><g/></g></g><g fill="#000000" fill-opacity="1"><g transform="translate(45.667395, 25.989105)"><g><path d="M 40.371094 -13.542969 C 40.453125 -13.578125 40.496094 -13.640625 40.496094 -13.738281 C 40.445312 -14.140625 40.035156 -14.460938 39.265625 -14.699219 C 38.726562 -14.871094 38.1875 -14.957031 37.65625 -14.957031 C 34.183594 -14.957031 29.980469 -12.636719 25.046875 -8 C 24.472656 -7.46875 23.507812 -6.464844 22.148438 -4.988281 C 22.292969 -5.425781 22.367188 -5.832031 22.367188 -6.21875 C 22.367188 -6.921875 22.132812 -7.636719 21.667969 -8.355469 C 23.078125 -9.847656 24.253906 -11 25.195312 -11.8125 C 26.941406 -13.300781 28.300781 -14.089844 29.273438 -14.171875 C 29.324219 -14.171875 29.382812 -14.179688 29.445312 -14.195312 C 29.59375 -14.195312 29.753906 -14.164062 29.925781 -14.097656 C 30.039062 -14.03125 30.113281 -14.015625 30.148438 -14.046875 C 30.304688 -14.226562 29.644531 -14.539062 28.167969 -14.980469 C 28.128906 -14.980469 27.992188 -15.015625 27.761719 -15.078125 C 26.453125 -15.449219 25.035156 -15.785156 23.511719 -16.085938 C 21.078125 -16.554688 18.636719 -16.789062 16.1875 -16.789062 C 12.523438 -16.789062 9.761719 -15.90625 7.902344 -14.144531 C 7.042969 -13.34375 6.613281 -12.394531 6.613281 -11.308594 C 6.613281 -10.578125 6.914062 -9.953125 7.519531 -9.4375 L 6.722656 -9.03125 C 5.09375 -8.230469 3.714844 -7.15625 2.59375 -5.8125 C 1.28125 -4.273438 0.625 -2.6875 0.625 -1.058594 C 0.625 1.074219 2.011719 2.136719 4.78125 2.136719 C 6.8125 2.136719 8.976562 1.585938 11.269531 0.480469 C 14.472656 -1.070312 17.539062 -3.558594 20.460938 -6.992188 C 20.660156 -7.230469 20.980469 -7.589844 21.421875 -8.074219 C 21.757812 -7.558594 21.949219 -6.980469 22 -6.339844 C 22.046875 -5.6875 21.871094 -4.957031 21.46875 -4.152344 C 20.226562 -2.664062 19.410156 -1.511719 19.023438 -0.699219 C 18.894531 -0.421875 18.828125 -0.148438 18.828125 0.121094 C 18.8125 0.261719 18.828125 0.359375 18.878906 0.417969 C 18.925781 0.476562 19.015625 0.496094 19.148438 0.480469 C 19.367188 0.464844 19.679688 0.160156 20.082031 -0.429688 C 20.164062 -0.5625 20.289062 -0.746094 20.460938 -0.984375 C 22.003906 -3.097656 23.621094 -5.035156 25.316406 -6.796875 C 28.710938 -10.320312 31.757812 -12.695312 34.460938 -13.925781 C 35.566406 -14.425781 36.65625 -14.675781 37.730469 -14.675781 C 38.664062 -14.675781 39.425781 -14.378906 40.015625 -13.789062 C 40.222656 -13.625 40.339844 -13.542969 40.371094 -13.542969 Z M 28.894531 -14.429688 C 27.261719 -14.15625 24.660156 -12.375 21.089844 -9.082031 C 19.917969 -10.230469 18.003906 -10.875 15.351562 -11.023438 C 12.949219 -11.15625 10.457031 -10.675781 7.878906 -9.585938 C 7.273438 -10.078125 6.96875 -10.644531 6.96875 -11.28125 C 6.96875 -12.804688 8.121094 -14.019531 10.421875 -14.921875 C 12.132812 -15.59375 14.054688 -15.929688 16.1875 -15.929688 C 18.429688 -15.929688 20.730469 -15.789062 23.082031 -15.511719 C 23.980469 -15.386719 25.558594 -15.117188 27.8125 -14.699219 C 27.894531 -14.683594 28.253906 -14.59375 28.894531 -14.429688 Z M 20.78125 -8.8125 L 19.652344 -7.730469 C 19.503906 -7.589844 19.183594 -7.273438 18.691406 -6.773438 C 16.652344 -4.707031 14.507812 -2.90625 12.253906 -1.363281 C 9.195312 0.71875 6.65625 1.757812 4.632812 1.757812 C 2.25 1.757812 1.058594 0.835938 1.058594 -1.007812 C 1.058594 -1.230469 1.082031 -1.488281 1.128906 -1.78125 C 1.449219 -3.730469 3.226562 -5.722656 6.464844 -7.753906 C 8.578125 -9.082031 10.8125 -9.980469 13.164062 -10.445312 C 13.933594 -10.59375 14.652344 -10.660156 15.324219 -10.644531 C 17.742188 -10.578125 19.5625 -9.96875 20.78125 -8.8125 Z M 20.78125 -8.8125 "/></g></g></g><g clip-path="url(#33b6c8aee0)"><g fill="#000000" fill-opacity="1"><g transform="translate(70.0992, 25.989105)"><g><path d="M 9.917969 -7.324219 C 9.902344 -7.359375 9.835938 -7.375 9.722656 -7.375 C 9.222656 -7.375 8.828125 -7.292969 8.542969 -7.128906 C 7.699219 -6.636719 6.59375 -5.742188 5.234375 -4.449219 C 3.546875 -2.84375 2.464844 -1.855469 1.992188 -1.488281 C 0.917969 -0.644531 0.179688 -0.222656 -0.222656 -0.222656 C -0.386719 -0.222656 -0.46875 -0.300781 -0.46875 -0.453125 C -0.46875 -0.953125 0.613281 -2.253906 2.777344 -4.351562 C 3.679688 -5.226562 4.742188 -6.167969 5.972656 -7.175781 C 5.398438 -7.226562 4.886719 -7.125 4.4375 -6.871094 C 3.59375 -6.402344 2.585938 -5.640625 1.414062 -4.585938 C -0.398438 -2.953125 -1.304688 -1.632812 -1.304688 -0.625 C -1.304688 -0.09375 -1.007812 0.171875 -0.417969 0.171875 C 0.0820312 0.171875 0.9375 -0.285156 2.152344 -1.203125 C 2.714844 -1.648438 3.199219 -2.070312 3.601562 -2.46875 C 3.167969 -1.898438 2.355469 -1.023438 1.167969 0.148438 C -0.445312 1.746094 -1.902344 3.015625 -3.195312 3.957031 C -5.875 5.914062 -8.339844 6.863281 -10.59375 6.796875 C -12.355469 6.746094 -13.636719 6.210938 -14.441406 5.1875 C -14.710938 4.851562 -14.886719 4.449219 -14.96875 3.980469 C -15.066406 3.695312 -15.136719 3.558594 -15.179688 3.578125 C -15.34375 3.609375 -15.382812 3.828125 -15.300781 4.226562 C -15.015625 5.621094 -13.972656 6.542969 -12.179688 6.992188 C -11.605469 7.148438 -11.035156 7.226562 -10.472656 7.226562 C -6.875 7.242188 -3.1875 5.539062 0.589844 2.113281 C 1.089844 1.648438 2.003906 0.71875 3.332031 -0.675781 C 4.28125 -1.699219 5.722656 -3.238281 7.65625 -5.285156 C 8.15625 -5.808594 8.507812 -6.160156 8.714844 -6.339844 C 9.195312 -6.792969 9.582031 -7.09375 9.867188 -7.25 C 9.902344 -7.265625 9.917969 -7.292969 9.917969 -7.324219 Z M 9.917969 -7.324219 "/></g></g></g></g><g fill="#000000" fill-opacity="1"><g transform="translate(77.595881, 25.989105)"><g/></g></g><g fill="#000000" fill-opacity="1"><g transform="translate(82.818975, 25.989105)"><g><path d="M 37.691406 -14.292969 C 37.382812 -15.605469 36.386719 -16.300781 34.707031 -16.382812 C 32.914062 -16.464844 30.511719 -15.566406 27.503906 -13.691406 C 25.21875 -12.265625 22.402344 -10.144531 19.050781 -7.324219 L 17.007812 -5.617188 C 15.28125 -4.15625 13.9375 -3.0625 12.976562 -2.335938 C 11.152344 -0.925781 9.742188 -0.00390625 8.75 0.429688 C 8.183594 0.683594 7.824219 0.78125 7.667969 0.726562 C 7.554688 0.707031 7.496094 0.636719 7.496094 0.503906 C 7.628906 0.117188 8.316406 -0.625 9.5625 -1.734375 C 11.019531 -3.027344 12.804688 -4.65625 14.921875 -6.625 C 15.542969 -7.191406 16.390625 -8.046875 17.464844 -9.191406 C 19.464844 -11.308594 20.710938 -13.078125 21.210938 -14.503906 C 21.246094 -14.503906 21.613281 -14.378906 22.320312 -14.132812 C 23.023438 -13.886719 23.382812 -13.773438 23.398438 -13.789062 C 23.433594 -13.820312 23.449219 -13.855469 23.449219 -13.886719 C 23.449219 -14.140625 22.738281 -14.453125 21.3125 -14.820312 L 21.285156 -14.820312 C 21.320312 -15.191406 21.230469 -15.519531 21.015625 -15.804688 C 20.925781 -15.917969 20.863281 -15.929688 20.832031 -15.828125 C 20.75 -15.574219 20.636719 -15.308594 20.488281 -15.03125 C 18.957031 -15.308594 17.195312 -15.449219 15.203125 -15.449219 C 11.441406 -15.449219 8.097656 -14.484375 5.175781 -12.558594 C 3.265625 -11.296875 1.941406 -9.5625 1.203125 -7.347656 C 1 -6.742188 0.890625 -6.238281 0.871094 -5.835938 C 0.789062 -3.660156 1.546875 -2.160156 3.144531 -1.339844 C 3.195312 -1.296875 3.246094 -1.277344 3.292969 -1.277344 C 3.359375 -1.277344 3.398438 -1.316406 3.417969 -1.390625 C 3.433594 -1.453125 3.34375 -1.535156 3.144531 -1.632812 C 2.269531 -2.273438 1.703125 -3.089844 1.449219 -4.082031 C 1.335938 -4.515625 1.292969 -5.09375 1.328125 -5.8125 C 1.359375 -6.738281 1.746094 -7.738281 2.484375 -8.8125 C 3.746094 -10.640625 5.632812 -12.128906 8.148438 -13.285156 C 10.53125 -14.398438 12.890625 -14.957031 15.226562 -14.957031 C 17.105469 -14.957031 18.804688 -14.855469 20.328125 -14.648438 C 19.777344 -13.578125 18.238281 -11.730469 15.707031 -9.105469 C 15.484375 -8.894531 15.097656 -8.507812 14.539062 -7.953125 C 12.867188 -6.363281 10.953125 -4.488281 8.800781 -2.335938 C 7.578125 -1.113281 6.945312 -0.160156 6.894531 0.527344 C 6.863281 0.914062 7.054688 1.121094 7.472656 1.15625 C 8.191406 1.222656 9.460938 0.644531 11.269531 -0.578125 C 12.613281 -1.488281 13.980469 -2.503906 15.375 -3.625 L 19.847656 -7.25 C 26.699219 -12.789062 31.597656 -15.523438 34.546875 -15.449219 C 35.875 -15.414062 36.882812 -14.972656 37.570312 -14.121094 C 37.601562 -14.070312 37.636719 -14.054688 37.667969 -14.070312 C 37.710938 -14.089844 37.730469 -14.121094 37.730469 -14.171875 C 37.707031 -14.21875 37.691406 -14.261719 37.691406 -14.292969 Z M 37.691406 -14.292969 "/></g></g></g><g fill="#000000" fill-opacity="1"><g transform="translate(101.007643, 25.989105)"><g><path d="M 2.519531 -5.9375 C 1.257812 -5.050781 0.296875 -4.0625 -0.367188 -2.972656 C -0.859375 -2.179688 -1.105469 -1.507812 -1.105469 -0.957031 C -1.105469 -0.1875 -0.738281 0.195312 0 0.195312 C 1.074219 0.195312 2.710938 -0.902344 4.914062 -3.097656 C 6.441406 -4.621094 7.203125 -5.828125 7.203125 -6.722656 C 7.203125 -7.222656 6.898438 -7.472656 6.292969 -7.472656 C 5.21875 -7.472656 3.960938 -6.960938 2.519531 -5.9375 Z M 6.746094 -6.488281 C 6.507812 -5.941406 6.082031 -5.3125 5.46875 -4.609375 C 4.257812 -3.230469 2.960938 -2.015625 1.585938 -0.957031 C 0.863281 -0.402344 0.34375 -0.121094 0.0234375 -0.121094 C -0.3125 -0.121094 -0.441406 -0.308594 -0.367188 -0.675781 C -0.304688 -1.042969 0.0820312 -1.644531 0.785156 -2.46875 C 2.195312 -4.109375 3.582031 -5.40625 4.941406 -6.367188 C 5.628906 -6.859375 6.140625 -7.105469 6.476562 -7.105469 C 6.828125 -7.105469 6.917969 -6.898438 6.746094 -6.488281 Z M -0.222656 1.84375 C -0.222656 1.375 -0.457031 1.144531 -0.933594 1.144531 C -1.402344 1.144531 -1.632812 1.375 -1.632812 1.84375 C -1.632812 2.03125 -1.5625 2.195312 -1.417969 2.335938 C -1.277344 2.472656 -1.113281 2.542969 -0.933594 2.542969 C -0.457031 2.542969 -0.222656 2.308594 -0.222656 1.84375 Z M -0.222656 1.84375 "/></g></g></g><g fill="#000000" fill-opacity="1"><g transform="translate(107.299939, 25.989105)"><g><path d="M 8.886719 -3.527344 L 8.738281 -3.429688 C 6.273438 -1.226562 4.6875 -0.121094 3.980469 -0.121094 C 3.726562 -0.121094 3.601562 -0.207031 3.601562 -0.382812 C 3.601562 -0.75 4.214844 -1.503906 5.445312 -2.640625 C 5.707031 -2.894531 6.234375 -3.382812 7.03125 -4.105469 C 8.234375 -5.226562 8.851562 -6.101562 8.886719 -6.722656 C 8.902344 -6.917969 8.820312 -7.085938 8.644531 -7.21875 C 8.46875 -7.355469 8.273438 -7.421875 8.0625 -7.421875 C 7.441406 -7.421875 6.433594 -6.972656 5.039062 -6.070312 C 4.113281 -5.464844 3.171875 -4.785156 2.210938 -4.03125 C 3.539062 -5.507812 4.714844 -6.59375 5.738281 -7.300781 C 4.984375 -7.300781 4.398438 -7.164062 3.980469 -6.894531 C 3.328125 -6.476562 2.550781 -5.796875 1.660156 -4.855469 C 0.0859375 -3.199219 -0.996094 -1.796875 -1.585938 -0.652344 C -1.617188 -0.585938 -1.644531 -0.503906 -1.660156 -0.40625 C -1.691406 0.0859375 -1.589844 0.332031 -1.351562 0.332031 L -0.527344 -0.726562 C 1.003906 -2.675781 2.957031 -4.378906 5.332031 -5.835938 C 6.785156 -6.730469 7.65625 -7.117188 7.953125 -6.992188 C 8.007812 -6.976562 8.039062 -6.945312 8.039062 -6.894531 C 8.039062 -6.679688 7.765625 -6.347656 7.226562 -5.886719 C 6.890625 -5.601562 6.304688 -5.089844 5.46875 -4.351562 L 4.78125 -3.722656 C 3.371094 -2.414062 2.71875 -1.355469 2.828125 -0.554688 C 2.890625 -0.0351562 3.175781 0.222656 3.675781 0.222656 C 4.25 0.222656 5.046875 -0.132812 6.070312 -0.835938 C 6.777344 -1.320312 7.714844 -2.074219 8.886719 -3.097656 C 9.023438 -3.210938 9.09375 -3.292969 9.09375 -3.34375 C 9.09375 -3.546875 9.023438 -3.609375 8.886719 -3.527344 Z M 8.886719 -3.527344 "/></g></g></g><g clip-path="url(#d95d222553)"><g fill="#000000" fill-opacity="1"><g transform="translate(115.706053, 25.989105)"><g><path d="M 9.242188 -7.175781 C 8.855469 -7.195312 8.546875 -7.117188 8.308594 -6.945312 C 8.273438 -6.925781 8.023438 -6.726562 7.558594 -6.339844 C 7.46875 -6.277344 7.308594 -6.125 7.078125 -5.886719 L 6.699219 -5.519531 L 6.625 -5.566406 C 7.042969 -6.019531 7.277344 -6.425781 7.324219 -6.796875 C 7.375 -7.214844 7.125 -7.421875 6.574219 -7.421875 C 5.984375 -7.421875 5.195312 -7.191406 4.203125 -6.722656 C 2.828125 -6.066406 1.617188 -5.21875 0.578125 -4.179688 C -0.691406 -2.902344 -1.328125 -1.734375 -1.328125 -0.675781 C -1.328125 -0.109375 -1.035156 0.171875 -0.453125 0.171875 C 0.390625 0.171875 1.941406 -0.894531 4.203125 -3.023438 L 4.253906 -2.972656 C 2.679688 -1.246094 1.070312 0.386719 -0.578125 1.917969 C -4.085938 5.171875 -7.359375 6.796875 -10.398438 6.796875 C -12.140625 6.796875 -13.472656 6.269531 -14.390625 5.210938 C -14.695312 4.859375 -14.886719 4.449219 -14.96875 3.980469 C -15.074219 3.695312 -15.144531 3.558594 -15.179688 3.578125 C -15.277344 3.59375 -15.324219 3.699219 -15.324219 3.894531 C -15.324219 5.027344 -14.671875 5.90625 -13.359375 6.539062 C -12.425781 6.996094 -11.394531 7.226562 -10.261719 7.226562 C -7.296875 7.226562 -4.234375 6.019531 -1.082031 3.601562 C -0.0078125 2.78125 1.3125 1.574219 2.875 -0.0234375 C 3.644531 -0.8125 4.503906 -1.742188 5.445312 -2.8125 L 8.285156 -6.070312 C 8.457031 -6.269531 8.773438 -6.636719 9.242188 -7.175781 Z M 6.917969 -6.84375 C 6.917969 -6.625 6.667969 -6.214844 6.167969 -5.617188 C 5.113281 -4.339844 3.746094 -3.011719 2.066406 -1.632812 C 0.738281 -0.542969 -0.09375 -0.0664062 -0.429688 -0.195312 C -0.59375 -0.269531 -0.644531 -0.421875 -0.578125 -0.652344 C -0.289062 -1.625 1.09375 -3.15625 3.578125 -5.234375 C 5.035156 -6.457031 6.035156 -7.066406 6.574219 -7.066406 C 6.804688 -7.066406 6.917969 -6.992188 6.917969 -6.84375 Z M 6.917969 -6.84375 "/></g></g></g></g></g></g></svg>